<svg role="img" viewBox="0 0 24 24" xmlns="http://www.w3.org/2000/svg">
<path d="M16.607 8.639L22.150 3.050L21.425 2.319L15.882 7.908L16.607 8.639Z"/>
<path d="M18.535 9.144L24.000 3.679L23.269 2.949L17.804 8.414L18.535 9.144Z"/>
<path d="M0.000 12.803L18.078 4.497L19.780 4.497L21.481 6.198V9.086L19.831 10.735L17.741 8.617L17.209 9.142L21.630 13.623H18.896L16.057 10.784L9.487 13.623H0.000V12.803Z"/>
<path d="M7.622 3.640L8.126 3.640L8.126 5.105L7.622 5.105Z" />
<path d="M5.105 2.678L4.948 2.754L4.903 2.923L2.136 13.527L2.012 14.002H2.503H3.144H4.631H4.924L4.998 13.719L6.962 6.203L14.650 13.891L14.761 14.002H14.918H17.835H18.751L18.103 13.354L6.858 2.109L6.666 1.918L6.423 2.036L5.105 2.678Z"/>

</svg>
